solid OpenSCAD_Model
  facet normal -0.707107 -0.707107 0
    outer loop
      vertex 6.36396 4.94975 13
      vertex 4.94975 6.36396 15
      vertex 4.94975 6.36396 13
    endloop
  endfacet
  facet normal -0.707107 -0.707107 0
    outer loop
      vertex 4.94975 6.36396 15
      vertex 6.36396 4.94975 13
      vertex 6.36396 4.94975 15
    endloop
  endfacet
  facet normal -0 0 1
    outer loop
      vertex -4.94975 -6.36396 15
      vertex -1 -8 15
      vertex -1 -2.41421 15
    endloop
  endfacet
  facet normal 0 -0 1
    outer loop
      vertex -3.09017 -9.51056 15
      vertex -1 -8 15
      vertex -4.94975 -6.36396 15
    endloop
  endfacet
  facet normal 0 0 1
    outer loop
      vertex -1 -8 15
      vertex -3.09017 -9.51056 15
      vertex -1.04528 -9.94522 15
    endloop
  endfacet
  facet normal 0 0 1
    outer loop
      vertex -4.94975 -6.36396 15
      vertex -5 -8.66025 15
      vertex -3.09017 -9.51056 15
    endloop
  endfacet
  facet normal 0 0 1
    outer loop
      vertex -6.69131 -7.43145 15
      vertex -4.94975 -6.36396 15
      vertex -6.36396 -4.94975 15
    endloop
  endfacet
  facet normal 0 0 1
    outer loop
      vertex -4.94975 -6.36396 15
      vertex -6.69131 -7.43145 15
      vertex -5 -8.66025 15
    endloop
  endfacet
  facet normal 0 0 1
    outer loop
      vertex 1.04528 9.94522 15
      vertex -0.999999 8 15
      vertex 1 8 15
    endloop
  endfacet
  facet normal -0 0 1
    outer loop
      vertex -1.04528 9.94522 15
      vertex -0.999999 8 15
      vertex 1.04528 9.94522 15
    endloop
  endfacet
  facet normal -0 0 1
    outer loop
      vertex -3.09017 9.51056 15
      vertex -0.999999 8 15
      vertex -1.04528 9.94522 15
    endloop
  endfacet
  facet normal 0 0 1
    outer loop
      vertex -0.999999 8 15
      vertex -3.09017 9.51056 15
      vertex -4.94975 6.36396 15
    endloop
  endfacet
  facet normal 0 0 1
    outer loop
      vertex -0.999999 8 15
      vertex -4.94975 6.36396 15
      vertex -1 2.41421 15
    endloop
  endfacet
  facet normal -0 0 1
    outer loop
      vertex -5 8.66025 15
      vertex -4.94975 6.36396 15
      vertex -3.09017 9.51056 15
    endloop
  endfacet
  facet normal -0 0 1
    outer loop
      vertex -6.69131 7.43145 15
      vertex -4.94975 6.36396 15
      vertex -5 8.66025 15
    endloop
  endfacet
  facet normal 0 0 1
    outer loop
      vertex -4.94975 6.36396 15
      vertex -6.69131 7.43145 15
      vertex -6.36396 4.94975 15
    endloop
  endfacet
  facet normal 0 0 1
    outer loop
      vertex 4.94975 6.36396 15
      vertex 6.69131 7.43145 15
      vertex 5 8.66025 15
    endloop
  endfacet
  facet normal 0 0 1
    outer loop
      vertex 6.69131 7.43145 15
      vertex 4.94975 6.36396 15
      vertex 6.36396 4.94975 15
    endloop
  endfacet
  facet normal 0 0 1
    outer loop
      vertex 3.09017 9.51056 15
      vertex 4.94975 6.36396 15
      vertex 5 8.66025 15
    endloop
  endfacet
  facet normal 0 0 1
    outer loop
      vertex 1 8 15
      vertex 3.09017 9.51056 15
      vertex 1.04528 9.94522 15
    endloop
  endfacet
  facet normal 0 0 1
    outer loop
      vertex 3.09017 9.51056 15
      vertex 1 8 15
      vertex 4.94975 6.36396 15
    endloop
  endfacet
  facet normal 0 0 1
    outer loop
      vertex 4.94975 6.36396 15
      vertex 1 8 15
      vertex 1 2.41421 15
    endloop
  endfacet
  facet normal -0 0 1
    outer loop
      vertex 8 0.999999 15
      vertex 10 0 15
      vertex 9.78148 2.07912 15
    endloop
  endfacet
  facet normal 0 0 1
    outer loop
      vertex 8 0.999999 15
      vertex 9.78148 2.07912 15
      vertex 9.13545 4.06737 15
    endloop
  endfacet
  facet normal 0 0 1
    outer loop
      vertex 8 -1 15
      vertex 10 0 15
      vertex 8 0.999999 15
    endloop
  endfacet
  facet normal -0 0 1
    outer loop
      vertex 6.36396 4.94975 15
      vertex 9.13545 4.06737 15
      vertex 8.09017 5.87785 15
    endloop
  endfacet
  facet normal 0 0 1
    outer loop
      vertex 10 0 15
      vertex 8 -1 15
      vertex 9.78148 -2.07912 15
    endloop
  endfacet
  facet normal 0 0 1
    outer loop
      vertex 9.78148 -2.07912 15
      vertex 8 -1 15
      vertex 9.13545 -4.06737 15
    endloop
  endfacet
  facet normal 0 0 1
    outer loop
      vertex 6.36396 4.94975 15
      vertex 8.09017 5.87785 15
      vertex 6.69131 7.43145 15
    endloop
  endfacet
  facet normal 0 0 1
    outer loop
      vertex 9.13545 4.06737 15
      vertex 6.36396 4.94975 15
      vertex 8 0.999999 15
    endloop
  endfacet
  facet normal 0 0 1
    outer loop
      vertex 8 0.999999 15
      vertex 6.36396 4.94975 15
      vertex 2.41421 1 15
    endloop
  endfacet
  facet normal 0 0 1
    outer loop
      vertex 6.36396 -4.94975 15
      vertex 9.13545 -4.06737 15
      vertex 8 -1 15
    endloop
  endfacet
  facet normal 0 0 1
    outer loop
      vertex 9.13545 -4.06737 15
      vertex 6.36396 -4.94975 15
      vertex 8.09017 -5.87785 15
    endloop
  endfacet
  facet normal 0 0 1
    outer loop
      vertex 8.09017 -5.87785 15
      vertex 6.36396 -4.94975 15
      vertex 6.69131 -7.43145 15
    endloop
  endfacet
  facet normal 0 -0 1
    outer loop
      vertex 6.36396 -4.94975 15
      vertex 8 -1 15
      vertex 2.41421 -1 15
    endloop
  endfacet
  facet normal -0 0 1
    outer loop
      vertex 4.94975 -6.36396 15
      vertex 6.69131 -7.43145 15
      vertex 6.36396 -4.94975 15
    endloop
  endfacet
  facet normal 0 0 1
    outer loop
      vertex 6.69131 -7.43145 15
      vertex 4.94975 -6.36396 15
      vertex 5 -8.66025 15
    endloop
  endfacet
  facet normal 0 0 1
    outer loop
      vertex 4.94975 -6.36396 15
      vertex 3.09017 -9.51056 15
      vertex 5 -8.66025 15
    endloop
  endfacet
  facet normal -0 0 1
    outer loop
      vertex 0.999999 -8 15
      vertex 3.09017 -9.51056 15
      vertex 4.94975 -6.36396 15
    endloop
  endfacet
  facet normal 0 0 1
    outer loop
      vertex 0.999999 -8 15
      vertex 4.94975 -6.36396 15
      vertex 1 -2.41421 15
    endloop
  endfacet
  facet normal 0 0 1
    outer loop
      vertex 3.09017 -9.51056 15
      vertex 0.999999 -8 15
      vertex 1.04528 -9.94522 15
    endloop
  endfacet
  facet normal -0 0 1
    outer loop
      vertex -1 -8 15
      vertex 1.04528 -9.94522 15
      vertex 0.999999 -8 15
    endloop
  endfacet
  facet normal 0 0 1
    outer loop
      vertex 1.04528 -9.94522 15
      vertex -1 -8 15
      vertex -1.04528 -9.94522 15
    endloop
  endfacet
  facet normal 0 0 1
    outer loop
      vertex -6.36396 4.94975 15
      vertex -8 1 15
      vertex -2.41421 1 15
    endloop
  endfacet
  facet normal -0 0 1
    outer loop
      vertex -8.09017 5.87785 15
      vertex -6.36396 4.94975 15
      vertex -6.69131 7.43145 15
    endloop
  endfacet
  facet normal 0 0 1
    outer loop
      vertex -6.36396 4.94975 15
      vertex -9.13545 4.06737 15
      vertex -8 1 15
    endloop
  endfacet
  facet normal 0 0 1
    outer loop
      vertex -9.13545 4.06737 15
      vertex -6.36396 4.94975 15
      vertex -8.09017 5.87785 15
    endloop
  endfacet
  facet normal 0 0 1
    outer loop
      vertex -8 -0.999999 15
      vertex -6.36396 -4.94975 15
      vertex -2.41421 -1 15
    endloop
  endfacet
  facet normal -0 0 1
    outer loop
      vertex -9.13545 -4.06737 15
      vertex -6.36396 -4.94975 15
      vertex -8 -0.999999 15
    endloop
  endfacet
  facet normal 0 0 1
    outer loop
      vertex -6.36396 -4.94975 15
      vertex -8.09017 -5.87785 15
      vertex -6.69131 -7.43145 15
    endloop
  endfacet
  facet normal -0 0 1
    outer loop
      vertex -9.78148 2.07912 15
      vertex -8 1 15
      vertex -9.13545 4.06737 15
    endloop
  endfacet
  facet normal 0 0 1
    outer loop
      vertex -10 0 15
      vertex -8 1 15
      vertex -9.78148 2.07912 15
    endloop
  endfacet
  facet normal 0 0 1
    outer loop
      vertex -6.36396 -4.94975 15
      vertex -9.13545 -4.06737 15
      vertex -8.09017 -5.87785 15
    endloop
  endfacet
  facet normal 0 0 1
    outer loop
      vertex -8 1 15
      vertex -10 0 15
      vertex -8 -0.999999 15
    endloop
  endfacet
  facet normal 0 0 1
    outer loop
      vertex -8 -0.999999 15
      vertex -9.78148 -2.07912 15
      vertex -9.13545 -4.06737 15
    endloop
  endfacet
  facet normal 0 0 1
    outer loop
      vertex -8 -0.999999 15
      vertex -10 0 15
      vertex -9.78148 -2.07912 15
    endloop
  endfacet
  facet normal 0.707107 -0.707107 0
    outer loop
      vertex 1 2.41421 15
      vertex 4.94975 6.36396 13
      vertex 4.94975 6.36396 15
    endloop
  endfacet
  facet normal 0.707107 -0.707107 0
    outer loop
      vertex 4.94975 6.36396 13
      vertex 1 2.41421 15
      vertex 1 2.41421 13
    endloop
  endfacet
  facet normal 0 0 1
    outer loop
      vertex 4.94975 6.36396 13
      vertex 2.41421 1 13
      vertex 6.36396 4.94975 13
    endloop
  endfacet
  facet normal 0 -0 1
    outer loop
      vertex 2.41421 1 13
      vertex 4.94975 6.36396 13
      vertex 1 2.41421 13
    endloop
  endfacet
  facet normal 0 0 1
    outer loop
      vertex 8 0.999999 13
      vertex 2.41421 -1 13
      vertex 8 -1 13
    endloop
  endfacet
  facet normal 0 -0 1
    outer loop
      vertex 2.41421 -1 13
      vertex 8 0.999999 13
      vertex 2.41421 1 13
    endloop
  endfacet
  facet normal 0 0 1
    outer loop
      vertex 2.41421 -1 13
      vertex 4.94975 -6.36396 13
      vertex 6.36396 -4.94975 13
    endloop
  endfacet
  facet normal 0 0 1
    outer loop
      vertex 1 2.41421 13
      vertex 2.41421 -1 13
      vertex 2.41421 1 13
    endloop
  endfacet
  facet normal 0 0 1
    outer loop
      vertex 2.41421 -1 13
      vertex 1 -2.41421 13
      vertex 4.94975 -6.36396 13
    endloop
  endfacet
  facet normal 0 0 1
    outer loop
      vertex 1 -2.41421 13
      vertex 2.41421 -1 13
      vertex 1 2.41421 13
    endloop
  endfacet
  facet normal 0 0 1
    outer loop
      vertex -1 2.41421 13
      vertex -2.41421 -1 13
      vertex -1 -2.41421 13
    endloop
  endfacet
  facet normal 0 0 1
    outer loop
      vertex -1 2.41421 13
      vertex -2.41421 1 13
      vertex -2.41421 -1 13
    endloop
  endfacet
  facet normal 0 0 1
    outer loop
      vertex -4.94975 6.36396 13
      vertex -2.41421 1 13
      vertex -1 2.41421 13
    endloop
  endfacet
  facet normal 0 0 1
    outer loop
      vertex -2.41421 1 13
      vertex -4.94975 6.36396 13
      vertex -6.36396 4.94975 13
    endloop
  endfacet
  facet normal 0 0 1
    outer loop
      vertex -1 2.41421 13
      vertex 1 2.41421 13
      vertex 1 8 13
    endloop
  endfacet
  facet normal 0 0 1
    outer loop
      vertex 1 2.41421 13
      vertex -1 2.41421 13
      vertex 1 -2.41421 13
    endloop
  endfacet
  facet normal 0 0 1
    outer loop
      vertex -1 2.41421 13
      vertex 1 8 13
      vertex -0.999999 8 13
    endloop
  endfacet
  facet normal 0 0 1
    outer loop
      vertex -1 -2.41421 13
      vertex 1 -2.41421 13
      vertex -1 2.41421 13
    endloop
  endfacet
  facet normal 0 0 1
    outer loop
      vertex 1 -2.41421 13
      vertex -1 -2.41421 13
      vertex 0.999999 -8 13
    endloop
  endfacet
  facet normal 0 0 1
    outer loop
      vertex 0.999999 -8 13
      vertex -1 -2.41421 13
      vertex -1 -8 13
    endloop
  endfacet
  facet normal 0 0 1
    outer loop
      vertex -2.41421 -1 13
      vertex -4.94975 -6.36396 13
      vertex -1 -2.41421 13
    endloop
  endfacet
  facet normal 0 -0 1
    outer loop
      vertex -4.94975 -6.36396 13
      vertex -2.41421 -1 13
      vertex -6.36396 -4.94975 13
    endloop
  endfacet
  facet normal -0 0 1
    outer loop
      vertex -8 1 13
      vertex -2.41421 -1 13
      vertex -2.41421 1 13
    endloop
  endfacet
  facet normal 0 0 1
    outer loop
      vertex -2.41421 -1 13
      vertex -8 1 13
      vertex -8 -0.999999 13
    endloop
  endfacet
  facet normal -0.707107 0.707107 0
    outer loop
      vertex 2.41421 1 13
      vertex 6.36396 4.94975 15
      vertex 6.36396 4.94975 13
    endloop
  endfacet
  facet normal -0.707107 0.707107 0
    outer loop
      vertex 6.36396 4.94975 15
      vertex 2.41421 1 13
      vertex 2.41421 1 15
    endloop
  endfacet
  facet normal 0 -1 0
    outer loop
      vertex -0.999999 8 13
      vertex 1 8 15
      vertex -0.999999 8 15
    endloop
  endfacet
  facet normal 0 -1 -0
    outer loop
      vertex 1 8 15
      vertex -0.999999 8 13
      vertex 1 8 13
    endloop
  endfacet
  facet normal -1 0 0
    outer loop
      vertex 1 2.41421 13
      vertex 1 8 15
      vertex 1 8 13
    endloop
  endfacet
  facet normal -1 -0 0
    outer loop
      vertex 1 8 15
      vertex 1 2.41421 13
      vertex 1 2.41421 15
    endloop
  endfacet
  facet normal 1 -1.17378e-07 0
    outer loop
      vertex -1 2.41421 15
      vertex -0.999999 8 13
      vertex -0.999999 8 15
    endloop
  endfacet
  facet normal 1 -1.17378e-07 0
    outer loop
      vertex -0.999999 8 13
      vertex -1 2.41421 15
      vertex -1 2.41421 13
    endloop
  endfacet
  facet normal 0.707107 -0.707107 0
    outer loop
      vertex -6.36396 4.94975 15
      vertex -4.94975 6.36396 13
      vertex -4.94975 6.36396 15
    endloop
  endfacet
  facet normal 0.707107 -0.707107 0
    outer loop
      vertex -4.94975 6.36396 13
      vertex -6.36396 4.94975 15
      vertex -6.36396 4.94975 13
    endloop
  endfacet
  facet normal -0.707107 -0.707107 0
    outer loop
      vertex -1 2.41421 13
      vertex -4.94975 6.36396 15
      vertex -4.94975 6.36396 13
    endloop
  endfacet
  facet normal -0.707107 -0.707107 0
    outer loop
      vertex -4.94975 6.36396 15
      vertex -1 2.41421 13
      vertex -1 2.41421 15
    endloop
  endfacet
  facet normal 0.707107 0.707107 0
    outer loop
      vertex -2.41421 1 15
      vertex -6.36396 4.94975 13
      vertex -6.36396 4.94975 15
    endloop
  endfacet
  facet normal 0.707107 0.707107 0
    outer loop
      vertex -6.36396 4.94975 13
      vertex -2.41421 1 15
      vertex -2.41421 1 13
    endloop
  endfacet
  facet normal 1 -0 0
    outer loop
      vertex -8 -0.999999 15
      vertex -8 1 13
      vertex -8 1 15
    endloop
  endfacet
  facet normal 1 0 0
    outer loop
      vertex -8 1 13
      vertex -8 -0.999999 15
      vertex -8 -0.999999 13
    endloop
  endfacet
  facet normal 0 -1 0
    outer loop
      vertex -8 1 13
      vertex -2.41421 1 15
      vertex -8 1 15
    endloop
  endfacet
  facet normal 0 -1 -0
    outer loop
      vertex -2.41421 1 15
      vertex -8 1 13
      vertex -2.41421 1 13
    endloop
  endfacet
  facet normal 1.17378e-07 1 -0
    outer loop
      vertex -2.41421 -1 13
      vertex -8 -0.999999 15
      vertex -2.41421 -1 15
    endloop
  endfacet
  facet normal 1.17378e-07 1 0
    outer loop
      vertex -8 -0.999999 15
      vertex -2.41421 -1 13
      vertex -8 -0.999999 13
    endloop
  endfacet
  facet normal 0.707107 0.707107 0
    outer loop
      vertex -4.94975 -6.36396 15
      vertex -6.36396 -4.94975 13
      vertex -6.36396 -4.94975 15
    endloop
  endfacet
  facet normal 0.707107 0.707107 0
    outer loop
      vertex -6.36396 -4.94975 13
      vertex -4.94975 -6.36396 15
      vertex -4.94975 -6.36396 13
    endloop
  endfacet
  facet normal 0.707107 -0.707107 0
    outer loop
      vertex -6.36396 -4.94975 15
      vertex -2.41421 -1 13
      vertex -2.41421 -1 15
    endloop
  endfacet
  facet normal 0.707107 -0.707107 0
    outer loop
      vertex -2.41421 -1 13
      vertex -6.36396 -4.94975 15
      vertex -6.36396 -4.94975 13
    endloop
  endfacet
  facet normal -0.707107 0.707107 0
    outer loop
      vertex -4.94975 -6.36396 13
      vertex -1 -2.41421 15
      vertex -1 -2.41421 13
    endloop
  endfacet
  facet normal -0.707107 0.707107 0
    outer loop
      vertex -1 -2.41421 15
      vertex -4.94975 -6.36396 13
      vertex -4.94975 -6.36396 15
    endloop
  endfacet
  facet normal 0 1 -0
    outer loop
      vertex 0.999999 -8 13
      vertex -1 -8 15
      vertex 0.999999 -8 15
    endloop
  endfacet
  facet normal 0 1 0
    outer loop
      vertex -1 -8 15
      vertex 0.999999 -8 13
      vertex -1 -8 13
    endloop
  endfacet
  facet normal 1 -0 0
    outer loop
      vertex -1 -8 15
      vertex -1 -2.41421 13
      vertex -1 -2.41421 15
    endloop
  endfacet
  facet normal 1 0 0
    outer loop
      vertex -1 -2.41421 13
      vertex -1 -8 15
      vertex -1 -8 13
    endloop
  endfacet
  facet normal -1 1.17378e-07 0
    outer loop
      vertex 0.999999 -8 13
      vertex 1 -2.41421 15
      vertex 1 -2.41421 13
    endloop
  endfacet
  facet normal -1 1.17378e-07 0
    outer loop
      vertex 1 -2.41421 15
      vertex 0.999999 -8 13
      vertex 0.999999 -8 15
    endloop
  endfacet
  facet normal -0.707107 0.707107 0
    outer loop
      vertex 4.94975 -6.36396 13
      vertex 6.36396 -4.94975 15
      vertex 6.36396 -4.94975 13
    endloop
  endfacet
  facet normal -0.707107 0.707107 0
    outer loop
      vertex 6.36396 -4.94975 15
      vertex 4.94975 -6.36396 13
      vertex 4.94975 -6.36396 15
    endloop
  endfacet
  facet normal -0.707107 -0.707107 0
    outer loop
      vertex 6.36396 -4.94975 13
      vertex 2.41421 -1 15
      vertex 2.41421 -1 13
    endloop
  endfacet
  facet normal -0.707107 -0.707107 0
    outer loop
      vertex 2.41421 -1 15
      vertex 6.36396 -4.94975 13
      vertex 6.36396 -4.94975 15
    endloop
  endfacet
  facet normal 0.707107 0.707107 0
    outer loop
      vertex 4.94975 -6.36396 15
      vertex 1 -2.41421 13
      vertex 1 -2.41421 15
    endloop
  endfacet
  facet normal 0.707107 0.707107 0
    outer loop
      vertex 1 -2.41421 13
      vertex 4.94975 -6.36396 15
      vertex 4.94975 -6.36396 13
    endloop
  endfacet
  facet normal -1 0 0
    outer loop
      vertex 8 -1 13
      vertex 8 0.999999 15
      vertex 8 0.999999 13
    endloop
  endfacet
  facet normal -1 -0 0
    outer loop
      vertex 8 0.999999 15
      vertex 8 -1 13
      vertex 8 -1 15
    endloop
  endfacet
  facet normal 0 1 -0
    outer loop
      vertex 8 -1 13
      vertex 2.41421 -1 15
      vertex 8 -1 15
    endloop
  endfacet
  facet normal 0 1 0
    outer loop
      vertex 2.41421 -1 15
      vertex 8 -1 13
      vertex 2.41421 -1 13
    endloop
  endfacet
  facet normal -1.17378e-07 -1 0
    outer loop
      vertex 2.41421 1 13
      vertex 8 0.999999 15
      vertex 2.41421 1 15
    endloop
  endfacet
  facet normal -1.17378e-07 -1 -0
    outer loop
      vertex 8 0.999999 15
      vertex 2.41421 1 13
      vertex 8 0.999999 13
    endloop
  endfacet
  facet normal 0.866026 0.5 0
    outer loop
      vertex 9.13545 4.06737 15
      vertex 8.09017 5.87785 0
      vertex 8.09017 5.87785 15
    endloop
  endfacet
  facet normal 0.866026 0.5 0
    outer loop
      vertex 8.09017 5.87785 0
      vertex 9.13545 4.06737 15
      vertex 9.13545 4.06737 0
    endloop
  endfacet
  facet normal 0.743145 0.669131 0
    outer loop
      vertex 8.09017 5.87785 15
      vertex 6.69131 7.43145 0
      vertex 6.69131 7.43145 15
    endloop
  endfacet
  facet normal 0.743145 0.669131 0
    outer loop
      vertex 6.69131 7.43145 0
      vertex 8.09017 5.87785 15
      vertex 8.09017 5.87785 0
    endloop
  endfacet
  facet normal 0.406737 0.913545 -0
    outer loop
      vertex 5 8.66025 0
      vertex 3.09017 9.51056 15
      vertex 5 8.66025 15
    endloop
  endfacet
  facet normal 0.406737 0.913545 0
    outer loop
      vertex 3.09017 9.51056 15
      vertex 5 8.66025 0
      vertex 3.09017 9.51056 0
    endloop
  endfacet
  facet normal -0.406737 0.913545 0
    outer loop
      vertex -3.09017 9.51056 0
      vertex -5 8.66025 15
      vertex -3.09017 9.51056 15
    endloop
  endfacet
  facet normal -0.406737 0.913545 0
    outer loop
      vertex -5 8.66025 15
      vertex -3.09017 9.51056 0
      vertex -5 8.66025 0
    endloop
  endfacet
  facet normal -0.866026 0.5 0
    outer loop
      vertex -9.13545 4.06737 0
      vertex -8.09017 5.87785 15
      vertex -8.09017 5.87785 0
    endloop
  endfacet
  facet normal -0.866026 0.5 0
    outer loop
      vertex -8.09017 5.87785 15
      vertex -9.13545 4.06737 0
      vertex -9.13545 4.06737 15
    endloop
  endfacet
  facet normal 0.994522 -0.104529 0
    outer loop
      vertex 9.78148 -2.07912 15
      vertex 10 0 0
      vertex 10 0 15
    endloop
  endfacet
  facet normal 0.994522 -0.104529 0
    outer loop
      vertex 10 0 0
      vertex 9.78148 -2.07912 15
      vertex 9.78148 -2.07912 0
    endloop
  endfacet
  facet normal 0.587785 0.809017 -0
    outer loop
      vertex 6.69131 7.43145 0
      vertex 5 8.66025 15
      vertex 6.69131 7.43145 15
    endloop
  endfacet
  facet normal 0.587785 0.809017 0
    outer loop
      vertex 5 8.66025 15
      vertex 6.69131 7.43145 0
      vertex 5 8.66025 0
    endloop
  endfacet
  facet normal 0 1 -0
    outer loop
      vertex 1.04528 9.94522 0
      vertex -1.04528 9.94522 15
      vertex 1.04528 9.94522 15
    endloop
  endfacet
  facet normal 0 1 0
    outer loop
      vertex -1.04528 9.94522 15
      vertex 1.04528 9.94522 0
      vertex -1.04528 9.94522 0
    endloop
  endfacet
  facet normal -0.994522 0.104529 0
    outer loop
      vertex -10 0 0
      vertex -9.78148 2.07912 15
      vertex -9.78148 2.07912 0
    endloop
  endfacet
  facet normal -0.994522 0.104529 0
    outer loop
      vertex -9.78148 2.07912 15
      vertex -10 0 0
      vertex -10 0 15
    endloop
  endfacet
  facet normal -0.587785 0.809017 0
    outer loop
      vertex -5 8.66025 0
      vertex -6.69131 7.43145 15
      vertex -5 8.66025 15
    endloop
  endfacet
  facet normal -0.587785 0.809017 0
    outer loop
      vertex -6.69131 7.43145 15
      vertex -5 8.66025 0
      vertex -6.69131 7.43145 0
    endloop
  endfacet
  facet normal -0.207911 0.978148 0
    outer loop
      vertex -1.04528 9.94522 0
      vertex -3.09017 9.51056 15
      vertex -1.04528 9.94522 15
    endloop
  endfacet
  facet normal -0.207911 0.978148 0
    outer loop
      vertex -3.09017 9.51056 15
      vertex -1.04528 9.94522 0
      vertex -3.09017 9.51056 0
    endloop
  endfacet
  facet normal -0.743145 0.669131 0
    outer loop
      vertex -8.09017 5.87785 0
      vertex -6.69131 7.43145 15
      vertex -6.69131 7.43145 0
    endloop
  endfacet
  facet normal -0.743145 0.669131 0
    outer loop
      vertex -6.69131 7.43145 15
      vertex -8.09017 5.87785 0
      vertex -8.09017 5.87785 15
    endloop
  endfacet
  facet normal 0.994522 0.104529 0
    outer loop
      vertex 10 0 15
      vertex 9.78148 2.07912 0
      vertex 9.78148 2.07912 15
    endloop
  endfacet
  facet normal 0.994522 0.104529 0
    outer loop
      vertex 9.78148 2.07912 0
      vertex 10 0 15
      vertex 10 0 0
    endloop
  endfacet
  facet normal -0.207911 -0.978148 0
    outer loop
      vertex -3.09017 -9.51056 0
      vertex -1.04528 -9.94522 15
      vertex -3.09017 -9.51056 15
    endloop
  endfacet
  facet normal -0.207911 -0.978148 -0
    outer loop
      vertex -1.04528 -9.94522 15
      vertex -3.09017 -9.51056 0
      vertex -1.04528 -9.94522 0
    endloop
  endfacet
  facet normal 0.587785 -0.809017 0
    outer loop
      vertex 5 -8.66025 0
      vertex 6.69131 -7.43145 15
      vertex 5 -8.66025 15
    endloop
  endfacet
  facet normal 0.587785 -0.809017 0
    outer loop
      vertex 6.69131 -7.43145 15
      vertex 5 -8.66025 0
      vertex 6.69131 -7.43145 0
    endloop
  endfacet
  facet normal 0.951057 0.309017 0
    outer loop
      vertex 9.78148 2.07912 15
      vertex 9.13545 4.06737 0
      vertex 9.13545 4.06737 15
    endloop
  endfacet
  facet normal 0.951057 0.309017 0
    outer loop
      vertex 9.13545 4.06737 0
      vertex 9.78148 2.07912 15
      vertex 9.78148 2.07912 0
    endloop
  endfacet
  facet normal 0.207911 0.978148 -0
    outer loop
      vertex 3.09017 9.51056 0
      vertex 1.04528 9.94522 15
      vertex 3.09017 9.51056 15
    endloop
  endfacet
  facet normal 0.207911 0.978148 0
    outer loop
      vertex 1.04528 9.94522 15
      vertex 3.09017 9.51056 0
      vertex 1.04528 9.94522 0
    endloop
  endfacet
  facet normal -0.951057 0.309017 0
    outer loop
      vertex -9.78148 2.07912 0
      vertex -9.13545 4.06737 15
      vertex -9.13545 4.06737 0
    endloop
  endfacet
  facet normal -0.951057 0.309017 0
    outer loop
      vertex -9.13545 4.06737 15
      vertex -9.78148 2.07912 0
      vertex -9.78148 2.07912 15
    endloop
  endfacet
  facet normal 0.951057 -0.309017 0
    outer loop
      vertex 9.13545 -4.06737 15
      vertex 9.78148 -2.07912 0
      vertex 9.78148 -2.07912 15
    endloop
  endfacet
  facet normal 0.951057 -0.309017 0
    outer loop
      vertex 9.78148 -2.07912 0
      vertex 9.13545 -4.06737 15
      vertex 9.13545 -4.06737 0
    endloop
  endfacet
  facet normal 0.866026 -0.5 0
    outer loop
      vertex 8.09017 -5.87785 15
      vertex 9.13545 -4.06737 0
      vertex 9.13545 -4.06737 15
    endloop
  endfacet
  facet normal 0.866026 -0.5 0
    outer loop
      vertex 9.13545 -4.06737 0
      vertex 8.09017 -5.87785 15
      vertex 8.09017 -5.87785 0
    endloop
  endfacet
  facet normal -0.994522 -0.104529 0
    outer loop
      vertex -9.78148 -2.07912 0
      vertex -10 0 15
      vertex -10 0 0
    endloop
  endfacet
  facet normal -0.994522 -0.104529 0
    outer loop
      vertex -10 0 15
      vertex -9.78148 -2.07912 0
      vertex -9.78148 -2.07912 15
    endloop
  endfacet
  facet normal -0.866026 -0.5 0
    outer loop
      vertex -8.09017 -5.87785 0
      vertex -9.13545 -4.06737 15
      vertex -9.13545 -4.06737 0
    endloop
  endfacet
  facet normal -0.866026 -0.5 0
    outer loop
      vertex -9.13545 -4.06737 15
      vertex -8.09017 -5.87785 0
      vertex -8.09017 -5.87785 15
    endloop
  endfacet
  facet normal 0.207911 -0.978148 0
    outer loop
      vertex 1.04528 -9.94522 0
      vertex 3.09017 -9.51056 15
      vertex 1.04528 -9.94522 15
    endloop
  endfacet
  facet normal 0.207911 -0.978148 0
    outer loop
      vertex 3.09017 -9.51056 15
      vertex 1.04528 -9.94522 0
      vertex 3.09017 -9.51056 0
    endloop
  endfacet
  facet normal 0.406737 -0.913545 0
    outer loop
      vertex 3.09017 -9.51056 0
      vertex 5 -8.66025 15
      vertex 3.09017 -9.51056 15
    endloop
  endfacet
  facet normal 0.406737 -0.913545 0
    outer loop
      vertex 5 -8.66025 15
      vertex 3.09017 -9.51056 0
      vertex 5 -8.66025 0
    endloop
  endfacet
  facet normal 0.743145 -0.669131 0
    outer loop
      vertex 6.69131 -7.43145 15
      vertex 8.09017 -5.87785 0
      vertex 8.09017 -5.87785 15
    endloop
  endfacet
  facet normal 0.743145 -0.669131 0
    outer loop
      vertex 8.09017 -5.87785 0
      vertex 6.69131 -7.43145 15
      vertex 6.69131 -7.43145 0
    endloop
  endfacet
  facet normal -0.406737 -0.913545 0
    outer loop
      vertex -5 -8.66025 0
      vertex -3.09017 -9.51056 15
      vertex -5 -8.66025 15
    endloop
  endfacet
  facet normal -0.406737 -0.913545 -0
    outer loop
      vertex -3.09017 -9.51056 15
      vertex -5 -8.66025 0
      vertex -3.09017 -9.51056 0
    endloop
  endfacet
  facet normal 0 -1 0
    outer loop
      vertex -1.04528 -9.94522 0
      vertex 1.04528 -9.94522 15
      vertex -1.04528 -9.94522 15
    endloop
  endfacet
  facet normal 0 -1 -0
    outer loop
      vertex 1.04528 -9.94522 15
      vertex -1.04528 -9.94522 0
      vertex 1.04528 -9.94522 0
    endloop
  endfacet
  facet normal 0 0 -1
    outer loop
      vertex 9.78148 -2.07912 0
      vertex 9.78148 2.07912 0
      vertex 10 0 0
    endloop
  endfacet
  facet normal 0 0 -1
    outer loop
      vertex 9.13545 -4.06737 0
      vertex 9.78148 2.07912 0
      vertex 9.78148 -2.07912 0
    endloop
  endfacet
  facet normal 0 0 -1
    outer loop
      vertex 9.13545 -4.06737 0
      vertex 9.13545 4.06737 0
      vertex 9.78148 2.07912 0
    endloop
  endfacet
  facet normal 0 0 -1
    outer loop
      vertex 8.09017 -5.87785 0
      vertex 9.13545 4.06737 0
      vertex 9.13545 -4.06737 0
    endloop
  endfacet
  facet normal 0 0 -1
    outer loop
      vertex 8.09017 -5.87785 0
      vertex 8.09017 5.87785 0
      vertex 9.13545 4.06737 0
    endloop
  endfacet
  facet normal 0 0 -1
    outer loop
      vertex 6.69131 -7.43145 0
      vertex 8.09017 5.87785 0
      vertex 8.09017 -5.87785 0
    endloop
  endfacet
  facet normal 0 0 -1
    outer loop
      vertex 6.69131 -7.43145 0
      vertex 6.69131 7.43145 0
      vertex 8.09017 5.87785 0
    endloop
  endfacet
  facet normal 0 0 -1
    outer loop
      vertex 5 -8.66025 0
      vertex 6.69131 7.43145 0
      vertex 6.69131 -7.43145 0
    endloop
  endfacet
  facet normal 0 0 -1
    outer loop
      vertex 5 -8.66025 0
      vertex 5 8.66025 0
      vertex 6.69131 7.43145 0
    endloop
  endfacet
  facet normal 0 0 -1
    outer loop
      vertex 3.09017 -9.51056 0
      vertex 5 8.66025 0
      vertex 5 -8.66025 0
    endloop
  endfacet
  facet normal 0 0 -1
    outer loop
      vertex 3.09017 -9.51056 0
      vertex 3.09017 9.51056 0
      vertex 5 8.66025 0
    endloop
  endfacet
  facet normal 0 0 -1
    outer loop
      vertex 1.04528 -9.94522 0
      vertex 3.09017 9.51056 0
      vertex 3.09017 -9.51056 0
    endloop
  endfacet
  facet normal 0 0 -1
    outer loop
      vertex 1.04528 -9.94522 0
      vertex 1.04528 9.94522 0
      vertex 3.09017 9.51056 0
    endloop
  endfacet
  facet normal 0 0 -1
    outer loop
      vertex -1.04528 -9.94522 0
      vertex 1.04528 9.94522 0
      vertex 1.04528 -9.94522 0
    endloop
  endfacet
  facet normal 0 0 -1
    outer loop
      vertex -1.04528 -9.94522 0
      vertex -1.04528 9.94522 0
      vertex 1.04528 9.94522 0
    endloop
  endfacet
  facet normal 0 0 -1
    outer loop
      vertex -3.09017 -9.51056 0
      vertex -1.04528 9.94522 0
      vertex -1.04528 -9.94522 0
    endloop
  endfacet
  facet normal 0 0 -1
    outer loop
      vertex -3.09017 -9.51056 0
      vertex -3.09017 9.51056 0
      vertex -1.04528 9.94522 0
    endloop
  endfacet
  facet normal 0 0 -1
    outer loop
      vertex -3.09017 -9.51056 0
      vertex -5 8.66025 0
      vertex -3.09017 9.51056 0
    endloop
  endfacet
  facet normal 0 0 -1
    outer loop
      vertex -5 -8.66025 0
      vertex -5 8.66025 0
      vertex -3.09017 -9.51056 0
    endloop
  endfacet
  facet normal 0 0 -1
    outer loop
      vertex -6.69131 -7.43145 0
      vertex -5 8.66025 0
      vertex -5 -8.66025 0
    endloop
  endfacet
  facet normal 0 0 -1
    outer loop
      vertex -6.69131 -7.43145 0
      vertex -6.69131 7.43145 0
      vertex -5 8.66025 0
    endloop
  endfacet
  facet normal 0 0 -1
    outer loop
      vertex -8.09017 -5.87785 0
      vertex -6.69131 7.43145 0
      vertex -6.69131 -7.43145 0
    endloop
  endfacet
  facet normal 0 0 -1
    outer loop
      vertex -8.09017 -5.87785 0
      vertex -8.09017 5.87785 0
      vertex -6.69131 7.43145 0
    endloop
  endfacet
  facet normal 0 0 -1
    outer loop
      vertex -9.13545 -4.06737 0
      vertex -8.09017 5.87785 0
      vertex -8.09017 -5.87785 0
    endloop
  endfacet
  facet normal 0 0 -1
    outer loop
      vertex -9.13545 -4.06737 0
      vertex -9.13545 4.06737 0
      vertex -8.09017 5.87785 0
    endloop
  endfacet
  facet normal 0 0 -1
    outer loop
      vertex -9.78148 -2.07912 0
      vertex -9.13545 4.06737 0
      vertex -9.13545 -4.06737 0
    endloop
  endfacet
  facet normal 0 0 -1
    outer loop
      vertex -9.78148 -2.07912 0
      vertex -9.78148 2.07912 0
      vertex -9.13545 4.06737 0
    endloop
  endfacet
  facet normal 0 -0 -1
    outer loop
      vertex -9.78148 2.07912 0
      vertex -9.78148 -2.07912 0
      vertex -10 0 0
    endloop
  endfacet
  facet normal -0.951057 -0.309017 0
    outer loop
      vertex -9.13545 -4.06737 0
      vertex -9.78148 -2.07912 15
      vertex -9.78148 -2.07912 0
    endloop
  endfacet
  facet normal -0.951057 -0.309017 0
    outer loop
      vertex -9.78148 -2.07912 15
      vertex -9.13545 -4.06737 0
      vertex -9.13545 -4.06737 15
    endloop
  endfacet
  facet normal -0.743145 -0.669131 0
    outer loop
      vertex -6.69131 -7.43145 0
      vertex -8.09017 -5.87785 15
      vertex -8.09017 -5.87785 0
    endloop
  endfacet
  facet normal -0.743145 -0.669131 0
    outer loop
      vertex -8.09017 -5.87785 15
      vertex -6.69131 -7.43145 0
      vertex -6.69131 -7.43145 15
    endloop
  endfacet
  facet normal -0.587785 -0.809017 0
    outer loop
      vertex -6.69131 -7.43145 0
      vertex -5 -8.66025 15
      vertex -6.69131 -7.43145 15
    endloop
  endfacet
  facet normal -0.587785 -0.809017 -0
    outer loop
      vertex -5 -8.66025 15
      vertex -6.69131 -7.43145 0
      vertex -5 -8.66025 0
    endloop
  endfacet
  facet normal -0.992709 -0.120537 0
    outer loop
      vertex 8 0 1
      vertex 7.76753 1.91453 11
      vertex 7.76753 1.91453 1
    endloop
  endfacet
  facet normal -0.992709 -0.120537 0
    outer loop
      vertex 7.76753 1.91453 11
      vertex 8 0 1
      vertex 8 0 11
    endloop
  endfacet
  facet normal 0.992709 -0.120537 0
    outer loop
      vertex -8 0 11
      vertex -7.76753 1.91453 1
      vertex -7.76753 1.91453 11
    endloop
  endfacet
  facet normal 0.992709 -0.120537 0
    outer loop
      vertex -7.76753 1.91453 1
      vertex -8 0 11
      vertex -8 0 1
    endloop
  endfacet
  facet normal 0 -1 0
    outer loop
      vertex -0.964293 7.94167 1
      vertex 0.964293 7.94167 11
      vertex -0.964293 7.94167 11
    endloop
  endfacet
  facet normal 0 -1 -0
    outer loop
      vertex 0.964293 7.94167 11
      vertex -0.964293 7.94167 1
      vertex 0.964293 7.94167 1
    endloop
  endfacet
  facet normal 0 1 -0
    outer loop
      vertex 0.964293 -7.94167 1
      vertex -0.964293 -7.94167 11
      vertex 0.964293 -7.94167 11
    endloop
  endfacet
  facet normal 0 1 0
    outer loop
      vertex -0.964293 -7.94167 11
      vertex 0.964293 -7.94167 1
      vertex -0.964293 -7.94167 1
    endloop
  endfacet
  facet normal -0.663123 -0.748511 0
    outer loop
      vertex 4.54452 6.58387 1
      vertex 5.98809 5.30498 11
      vertex 4.54452 6.58387 11
    endloop
  endfacet
  facet normal -0.663123 -0.748511 -0
    outer loop
      vertex 5.98809 5.30498 11
      vertex 4.54452 6.58387 1
      vertex 5.98809 5.30498 1
    endloop
  endfacet
  facet normal 0.663123 -0.748511 0
    outer loop
      vertex -5.98809 5.30498 1
      vertex -4.54452 6.58387 11
      vertex -5.98809 5.30498 11
    endloop
  endfacet
  facet normal 0.663123 -0.748511 0
    outer loop
      vertex -4.54452 6.58387 11
      vertex -5.98809 5.30498 1
      vertex -4.54452 6.58387 1
    endloop
  endfacet
  facet normal 0 0 -1
    outer loop
      vertex 7.76753 -1.91453 11
      vertex 7.76753 1.91453 11
      vertex 8 0 11
    endloop
  endfacet
  facet normal 0 0 -1
    outer loop
      vertex 7.08365 -3.71778 11
      vertex 7.76753 1.91453 11
      vertex 7.76753 -1.91453 11
    endloop
  endfacet
  facet normal 0 0 -1
    outer loop
      vertex 7.08365 -3.71778 11
      vertex 7.08365 3.71778 11
      vertex 7.76753 1.91453 11
    endloop
  endfacet
  facet normal 0 0 -1
    outer loop
      vertex 5.98809 -5.30498 11
      vertex 7.08365 3.71778 11
      vertex 7.08365 -3.71778 11
    endloop
  endfacet
  facet normal 0 0 -1
    outer loop
      vertex 5.98809 -5.30498 11
      vertex 5.98809 5.30498 11
      vertex 7.08365 3.71778 11
    endloop
  endfacet
  facet normal 0 0 -1
    outer loop
      vertex 4.54452 -6.58387 11
      vertex 5.98809 5.30498 11
      vertex 5.98809 -5.30498 11
    endloop
  endfacet
  facet normal 0 0 -1
    outer loop
      vertex 4.54452 -6.58387 11
      vertex 4.54452 6.58387 11
      vertex 5.98809 5.30498 11
    endloop
  endfacet
  facet normal 0 0 -1
    outer loop
      vertex 2.83684 -7.48013 11
      vertex 4.54452 6.58387 11
      vertex 4.54452 -6.58387 11
    endloop
  endfacet
  facet normal 0 0 -1
    outer loop
      vertex 2.83684 -7.48013 11
      vertex 2.83684 7.48013 11
      vertex 4.54452 6.58387 11
    endloop
  endfacet
  facet normal 0 0 -1
    outer loop
      vertex 0.964293 -7.94167 11
      vertex 2.83684 7.48013 11
      vertex 2.83684 -7.48013 11
    endloop
  endfacet
  facet normal 0 0 -1
    outer loop
      vertex 0.964293 -7.94167 11
      vertex 0.964293 7.94167 11
      vertex 2.83684 7.48013 11
    endloop
  endfacet
  facet normal 0 0 -1
    outer loop
      vertex -0.964293 -7.94167 11
      vertex 0.964293 7.94167 11
      vertex 0.964293 -7.94167 11
    endloop
  endfacet
  facet normal 0 0 -1
    outer loop
      vertex -0.964293 -7.94167 11
      vertex -0.964293 7.94167 11
      vertex 0.964293 7.94167 11
    endloop
  endfacet
  facet normal 0 0 -1
    outer loop
      vertex -2.83684 -7.48013 11
      vertex -0.964293 7.94167 11
      vertex -0.964293 -7.94167 11
    endloop
  endfacet
  facet normal 0 0 -1
    outer loop
      vertex -2.83684 -7.48013 11
      vertex -2.83684 7.48013 11
      vertex -0.964293 7.94167 11
    endloop
  endfacet
  facet normal 0 0 -1
    outer loop
      vertex -4.54452 -6.58387 11
      vertex -2.83684 7.48013 11
      vertex -2.83684 -7.48013 11
    endloop
  endfacet
  facet normal 0 0 -1
    outer loop
      vertex -4.54452 -6.58387 11
      vertex -4.54452 6.58387 11
      vertex -2.83684 7.48013 11
    endloop
  endfacet
  facet normal 0 0 -1
    outer loop
      vertex -5.98809 -5.30498 11
      vertex -4.54452 6.58387 11
      vertex -4.54452 -6.58387 11
    endloop
  endfacet
  facet normal 0 0 -1
    outer loop
      vertex -5.98809 -5.30498 11
      vertex -5.98809 5.30498 11
      vertex -4.54452 6.58387 11
    endloop
  endfacet
  facet normal 0 0 -1
    outer loop
      vertex -7.08365 -3.71778 11
      vertex -5.98809 5.30498 11
      vertex -5.98809 -5.30498 11
    endloop
  endfacet
  facet normal 0 0 -1
    outer loop
      vertex -7.08365 -3.71778 11
      vertex -7.08365 3.71778 11
      vertex -5.98809 5.30498 11
    endloop
  endfacet
  facet normal 0 0 -1
    outer loop
      vertex -7.76753 -1.91453 11
      vertex -7.08365 3.71778 11
      vertex -7.08365 -3.71778 11
    endloop
  endfacet
  facet normal 0 0 -1
    outer loop
      vertex -7.76753 -1.91453 11
      vertex -7.76753 1.91453 11
      vertex -7.08365 3.71778 11
    endloop
  endfacet
  facet normal 0 -0 -1
    outer loop
      vertex -7.76753 1.91453 11
      vertex -7.76753 -1.91453 11
      vertex -8 0 11
    endloop
  endfacet
  facet normal 0.464723 -0.885456 0
    outer loop
      vertex -4.54452 6.58387 1
      vertex -2.83684 7.48013 11
      vertex -4.54452 6.58387 11
    endloop
  endfacet
  facet normal 0.464723 -0.885456 0
    outer loop
      vertex -2.83684 7.48013 11
      vertex -4.54452 6.58387 1
      vertex -2.83684 7.48013 1
    endloop
  endfacet
  facet normal 0 0 1
    outer loop
      vertex 7.76753 1.91453 1
      vertex 7.76753 -1.91453 1
      vertex 8 0 1
    endloop
  endfacet
  facet normal 0 0 1
    outer loop
      vertex 7.08365 3.71778 1
      vertex 7.76753 -1.91453 1
      vertex 7.76753 1.91453 1
    endloop
  endfacet
  facet normal 0 0 1
    outer loop
      vertex 7.08365 3.71778 1
      vertex 7.08365 -3.71778 1
      vertex 7.76753 -1.91453 1
    endloop
  endfacet
  facet normal 0 0 1
    outer loop
      vertex 5.98809 5.30498 1
      vertex 7.08365 -3.71778 1
      vertex 7.08365 3.71778 1
    endloop
  endfacet
  facet normal 0 0 1
    outer loop
      vertex 5.98809 5.30498 1
      vertex 5.98809 -5.30498 1
      vertex 7.08365 -3.71778 1
    endloop
  endfacet
  facet normal 0 0 1
    outer loop
      vertex 4.54452 6.58387 1
      vertex 5.98809 -5.30498 1
      vertex 5.98809 5.30498 1
    endloop
  endfacet
  facet normal 0 0 1
    outer loop
      vertex 4.54452 6.58387 1
      vertex 4.54452 -6.58387 1
      vertex 5.98809 -5.30498 1
    endloop
  endfacet
  facet normal 0 0 1
    outer loop
      vertex 2.83684 7.48013 1
      vertex 4.54452 -6.58387 1
      vertex 4.54452 6.58387 1
    endloop
  endfacet
  facet normal 0 0 1
    outer loop
      vertex 2.83684 7.48013 1
      vertex 2.83684 -7.48013 1
      vertex 4.54452 -6.58387 1
    endloop
  endfacet
  facet normal 0 0 1
    outer loop
      vertex 0.964293 7.94167 1
      vertex 2.83684 -7.48013 1
      vertex 2.83684 7.48013 1
    endloop
  endfacet
  facet normal 0 0 1
    outer loop
      vertex 0.964293 7.94167 1
      vertex 0.964293 -7.94167 1
      vertex 2.83684 -7.48013 1
    endloop
  endfacet
  facet normal -0 0 1
    outer loop
      vertex -0.964293 7.94167 1
      vertex 0.964293 -7.94167 1
      vertex 0.964293 7.94167 1
    endloop
  endfacet
  facet normal 0 0 1
    outer loop
      vertex -0.964293 7.94167 1
      vertex -0.964293 -7.94167 1
      vertex 0.964293 -7.94167 1
    endloop
  endfacet
  facet normal -0 0 1
    outer loop
      vertex -2.83684 7.48013 1
      vertex -0.964293 -7.94167 1
      vertex -0.964293 7.94167 1
    endloop
  endfacet
  facet normal 0 0 1
    outer loop
      vertex -2.83684 7.48013 1
      vertex -2.83684 -7.48013 1
      vertex -0.964293 -7.94167 1
    endloop
  endfacet
  facet normal -0 0 1
    outer loop
      vertex -4.54452 6.58387 1
      vertex -2.83684 -7.48013 1
      vertex -2.83684 7.48013 1
    endloop
  endfacet
  facet normal 0 0 1
    outer loop
      vertex -4.54452 6.58387 1
      vertex -4.54452 -6.58387 1
      vertex -2.83684 -7.48013 1
    endloop
  endfacet
  facet normal -0 0 1
    outer loop
      vertex -5.98809 5.30498 1
      vertex -4.54452 -6.58387 1
      vertex -4.54452 6.58387 1
    endloop
  endfacet
  facet normal 0 0 1
    outer loop
      vertex -5.98809 5.30498 1
      vertex -5.98809 -5.30498 1
      vertex -4.54452 -6.58387 1
    endloop
  endfacet
  facet normal -0 0 1
    outer loop
      vertex -7.08365 3.71778 1
      vertex -5.98809 -5.30498 1
      vertex -5.98809 5.30498 1
    endloop
  endfacet
  facet normal 0 0 1
    outer loop
      vertex -7.08365 3.71778 1
      vertex -7.08365 -3.71778 1
      vertex -5.98809 -5.30498 1
    endloop
  endfacet
  facet normal -0 0 1
    outer loop
      vertex -7.76753 1.91453 1
      vertex -7.08365 -3.71778 1
      vertex -7.08365 3.71778 1
    endloop
  endfacet
  facet normal 0 0 1
    outer loop
      vertex -7.76753 1.91453 1
      vertex -7.76753 -1.91453 1
      vertex -7.08365 -3.71778 1
    endloop
  endfacet
  facet normal 0 -0 1
    outer loop
      vertex -7.76753 -1.91453 1
      vertex -7.76753 1.91453 1
      vertex -8 0 1
    endloop
  endfacet
  facet normal -0.822984 -0.568065 0
    outer loop
      vertex 7.08365 3.71778 1
      vertex 5.98809 5.30498 11
      vertex 5.98809 5.30498 1
    endloop
  endfacet
  facet normal -0.822984 -0.568065 0
    outer loop
      vertex 5.98809 5.30498 11
      vertex 7.08365 3.71778 1
      vertex 7.08365 3.71778 11
    endloop
  endfacet
  facet normal -0.935016 -0.354605 0
    outer loop
      vertex 7.76753 1.91453 1
      vertex 7.08365 3.71778 11
      vertex 7.08365 3.71778 1
    endloop
  endfacet
  facet normal -0.935016 -0.354605 0
    outer loop
      vertex 7.08365 3.71778 11
      vertex 7.76753 1.91453 1
      vertex 7.76753 1.91453 11
    endloop
  endfacet
  facet normal -0.239316 -0.970942 0
    outer loop
      vertex 0.964293 7.94167 1
      vertex 2.83684 7.48013 11
      vertex 0.964293 7.94167 11
    endloop
  endfacet
  facet normal -0.239316 -0.970942 -0
    outer loop
      vertex 2.83684 7.48013 11
      vertex 0.964293 7.94167 1
      vertex 2.83684 7.48013 1
    endloop
  endfacet
  facet normal -0.464723 -0.885456 0
    outer loop
      vertex 2.83684 7.48013 1
      vertex 4.54452 6.58387 11
      vertex 2.83684 7.48013 11
    endloop
  endfacet
  facet normal -0.464723 -0.885456 -0
    outer loop
      vertex 4.54452 6.58387 11
      vertex 2.83684 7.48013 1
      vertex 4.54452 6.58387 1
    endloop
  endfacet
  facet normal 0.822984 -0.568065 0
    outer loop
      vertex -7.08365 3.71778 11
      vertex -5.98809 5.30498 1
      vertex -5.98809 5.30498 11
    endloop
  endfacet
  facet normal 0.822984 -0.568065 0
    outer loop
      vertex -5.98809 5.30498 1
      vertex -7.08365 3.71778 11
      vertex -7.08365 3.71778 1
    endloop
  endfacet
  facet normal 0.935016 -0.354605 0
    outer loop
      vertex -7.76753 1.91453 11
      vertex -7.08365 3.71778 1
      vertex -7.08365 3.71778 11
    endloop
  endfacet
  facet normal 0.935016 -0.354605 0
    outer loop
      vertex -7.08365 3.71778 1
      vertex -7.76753 1.91453 11
      vertex -7.76753 1.91453 1
    endloop
  endfacet
  facet normal 0.239316 -0.970942 0
    outer loop
      vertex -2.83684 7.48013 1
      vertex -0.964293 7.94167 11
      vertex -2.83684 7.48013 11
    endloop
  endfacet
  facet normal 0.239316 -0.970942 0
    outer loop
      vertex -0.964293 7.94167 11
      vertex -2.83684 7.48013 1
      vertex -0.964293 7.94167 1
    endloop
  endfacet
  facet normal -0.992709 0.120537 0
    outer loop
      vertex 7.76753 -1.91453 1
      vertex 8 0 11
      vertex 8 0 1
    endloop
  endfacet
  facet normal -0.992709 0.120537 0
    outer loop
      vertex 8 0 11
      vertex 7.76753 -1.91453 1
      vertex 7.76753 -1.91453 11
    endloop
  endfacet
  facet normal -0.663123 0.748511 0
    outer loop
      vertex 5.98809 -5.30498 1
      vertex 4.54452 -6.58387 11
      vertex 5.98809 -5.30498 11
    endloop
  endfacet
  facet normal -0.663123 0.748511 0
    outer loop
      vertex 4.54452 -6.58387 11
      vertex 5.98809 -5.30498 1
      vertex 4.54452 -6.58387 1
    endloop
  endfacet
  facet normal -0.822984 0.568065 0
    outer loop
      vertex 5.98809 -5.30498 1
      vertex 7.08365 -3.71778 11
      vertex 7.08365 -3.71778 1
    endloop
  endfacet
  facet normal -0.822984 0.568065 0
    outer loop
      vertex 7.08365 -3.71778 11
      vertex 5.98809 -5.30498 1
      vertex 5.98809 -5.30498 11
    endloop
  endfacet
  facet normal 0.663123 0.748511 -0
    outer loop
      vertex -4.54452 -6.58387 1
      vertex -5.98809 -5.30498 11
      vertex -4.54452 -6.58387 11
    endloop
  endfacet
  facet normal 0.663123 0.748511 0
    outer loop
      vertex -5.98809 -5.30498 11
      vertex -4.54452 -6.58387 1
      vertex -5.98809 -5.30498 1
    endloop
  endfacet
  facet normal 0.935016 0.354605 0
    outer loop
      vertex -7.08365 -3.71778 11
      vertex -7.76753 -1.91453 1
      vertex -7.76753 -1.91453 11
    endloop
  endfacet
  facet normal 0.935016 0.354605 0
    outer loop
      vertex -7.76753 -1.91453 1
      vertex -7.08365 -3.71778 11
      vertex -7.08365 -3.71778 1
    endloop
  endfacet
  facet normal 0.992709 0.120537 0
    outer loop
      vertex -7.76753 -1.91453 11
      vertex -8 0 1
      vertex -8 0 11
    endloop
  endfacet
  facet normal 0.992709 0.120537 0
    outer loop
      vertex -8 0 1
      vertex -7.76753 -1.91453 11
      vertex -7.76753 -1.91453 1
    endloop
  endfacet
  facet normal 0.822984 0.568065 0
    outer loop
      vertex -5.98809 -5.30498 11
      vertex -7.08365 -3.71778 1
      vertex -7.08365 -3.71778 11
    endloop
  endfacet
  facet normal 0.822984 0.568065 0
    outer loop
      vertex -7.08365 -3.71778 1
      vertex -5.98809 -5.30498 11
      vertex -5.98809 -5.30498 1
    endloop
  endfacet
  facet normal -0.239316 0.970942 0
    outer loop
      vertex 2.83684 -7.48013 1
      vertex 0.964293 -7.94167 11
      vertex 2.83684 -7.48013 11
    endloop
  endfacet
  facet normal -0.239316 0.970942 0
    outer loop
      vertex 0.964293 -7.94167 11
      vertex 2.83684 -7.48013 1
      vertex 0.964293 -7.94167 1
    endloop
  endfacet
  facet normal -0.935016 0.354605 0
    outer loop
      vertex 7.08365 -3.71778 1
      vertex 7.76753 -1.91453 11
      vertex 7.76753 -1.91453 1
    endloop
  endfacet
  facet normal -0.935016 0.354605 0
    outer loop
      vertex 7.76753 -1.91453 11
      vertex 7.08365 -3.71778 1
      vertex 7.08365 -3.71778 11
    endloop
  endfacet
  facet normal -0.464723 0.885456 0
    outer loop
      vertex 4.54452 -6.58387 1
      vertex 2.83684 -7.48013 11
      vertex 4.54452 -6.58387 11
    endloop
  endfacet
  facet normal -0.464723 0.885456 0
    outer loop
      vertex 2.83684 -7.48013 11
      vertex 4.54452 -6.58387 1
      vertex 2.83684 -7.48013 1
    endloop
  endfacet
  facet normal 0.464723 0.885456 -0
    outer loop
      vertex -2.83684 -7.48013 1
      vertex -4.54452 -6.58387 11
      vertex -2.83684 -7.48013 11
    endloop
  endfacet
  facet normal 0.464723 0.885456 0
    outer loop
      vertex -4.54452 -6.58387 11
      vertex -2.83684 -7.48013 1
      vertex -4.54452 -6.58387 1
    endloop
  endfacet
  facet normal 0.239316 0.970942 -0
    outer loop
      vertex -0.964293 -7.94167 1
      vertex -2.83684 -7.48013 11
      vertex -0.964293 -7.94167 11
    endloop
  endfacet
  facet normal 0.239316 0.970942 0
    outer loop
      vertex -2.83684 -7.48013 11
      vertex -0.964293 -7.94167 1
      vertex -2.83684 -7.48013 1
    endloop
  endfacet
endsolid OpenSCAD_Model
